<svg width="374" height="199.33509234828492" viewBox="0 0 454.8 242.39999999999998" class="css-1j8o68f"><defs id="SvgjsDefs1001"><linearGradient id="SvgjsLinearGradient1021"><stop id="SvgjsStop1022" stop-color="#7d141d" offset="0"></stop><stop id="SvgjsStop1023" stop-color="#ff1e27" offset="1"></stop></linearGradient><linearGradient id="SvgjsLinearGradient1024"><stop id="SvgjsStop1025" stop-color="#006838" offset="0"></stop><stop id="SvgjsStop1026" stop-color="#96cf24" offset="1"></stop></linearGradient><linearGradient id="SvgjsLinearGradient1027"><stop id="SvgjsStop1028" stop-color="#fbb040" offset="0"></stop><stop id="SvgjsStop1029" stop-color="#f9ed32" offset="1"></stop></linearGradient><linearGradient id="SvgjsLinearGradient1030"><stop id="SvgjsStop1031" stop-color="#006838" offset="0"></stop><stop id="SvgjsStop1032" stop-color="#96cf24" offset="1"></stop></linearGradient></defs><g id="SvgjsG1007" featurekey="rootContainer" transform="matrix(1.2,0,0,1.2,0,0)" fill="url(#SvgjsLinearGradient1021)"><rect xmlns="http://www.w3.org/2000/svg" width="379" height="202" rx="10" ry="10"></rect></g><g id="SvgjsG1008" featurekey="9id2mP-0" transform="matrix(1.357624984477744,0,0,1.357624984477744,160.18872757186813,3.393982961999349)" fill="url(#SvgjsLinearGradient1024)"><path xmlns="http://www.w3.org/2000/svg" d="M84.736,47.211c-2.238-2.238-6.467-5.414-6.92-5.867s2.469,0.156,4.352-0.039c0.281-0.029,1.766-0.126,2.227-0.317  c0.88-0.364,0.852-3.136,0.531-3.457c-1.645-1.644-6.281-1.5-7.125-1.5c-1,0-0.881,3.344-1.391,2.594  c-0.902-1.326-4.842-10.208-6.625-10.969c-1.215-0.518-10.516-0.719-19.834-0.69c-9.318-0.028-18.619,0.173-19.833,0.69  c-1.784,0.761-5.723,9.643-6.625,10.969c-0.51,0.75-0.391-2.594-1.391-2.594c-0.844,0-5.481-0.144-7.125,1.5  c-0.32,0.32-0.349,3.092,0.53,3.457c0.461,0.191,1.946,0.288,2.228,0.317c1.883,0.195,4.805-0.414,4.352,0.039  s-4.682,3.629-6.92,5.867c-2.145,2.145-1.506,28.164,0.816,28.164c3.018,0,4.768,0,8.315,0c0.89,0,0.664-4.458,0.664-4.458  s2.911,0.151,3.062,0c0.333-0.333-0.333-1.5,0.25-1.5s3.564,0,4.344,0s2.907,0.843,3.74,0.843c0.405,0,6.958,0,13.545,0  c0.033,0,13.238,0,13.643,0c0.833,0,2.961-0.843,3.74-0.843s3.76,0,4.344,0c0.583,0-0.084,1.167,0.25,1.5  c0.15,0.151,3.062,0,3.062,0s-0.227,4.458,0.664,4.458c3.547,0,5.297,0,8.314,0C86.242,75.375,86.881,49.355,84.736,47.211z   M29.227,65.793c-0.156,0.453-0.867,0.418-0.867,0.418l-8.755-0.69c0,0-0.186-1.592-0.042-2.142  c0.368-1.405,1.442-1.672,2.125-1.733c2.054-0.186,7.458,0.032,7.958,0.021C30.604,61.646,29.383,65.34,29.227,65.793z   M30.828,52.935c-1.769,0-8.52-0.145-9.081-0.114c-1.667,0.089-5.424-1.305-5.091-3.617c0.303-2.101,3.188-2.75,4.219-2.656  c1.683,0.153,7.46,0.83,8.484,1.854c1.151,1.151,1.526,2.667,2,3.77C31.5,52.5,31.369,52.935,30.828,52.935z M63.144,68.096  c-0.332,0.077-26.053,0.077-26.385,0c-0.609-0.142-2.335-0.342-2.023-1.741s0.578-2.229,1.002-2.854  c0.475-0.701,1.062-1.146,3.188-1.146c1.055,0,6.002,0,10.977,0c0.033,0,0.065,0,0.098,0c4.975,0,9.922,0,10.977,0  c2.125,0,2.713,0.444,3.188,1.146c0.424,0.626,0.689,1.455,1.002,2.854S63.752,67.954,63.144,68.096z M35.583,48.646  c3.205-0.559,11.949-0.54,13.01,0.292c1.156,0.906,1.062,4.531,0.344,5.938c-0.749,1.465-2.544,1.274-4.438,1.281  c-3.938,0.015-6.469,0.021-8.375-0.906C35.33,54.863,31.287,49.395,35.583,48.646z M63.777,55.25  c-1.906,0.928-4.438,0.921-8.375,0.906c-1.894-0.007-3.689,0.184-4.438-1.281c-0.719-1.406-0.812-5.031,0.344-5.938  c1.061-0.832,9.805-0.85,13.01-0.292C68.615,49.395,64.572,54.863,63.777,55.25z M50,40.064L50,40.064l-0.016-0.001l-0.033,0  l-0.033,0l-0.016,0v0.001l-24.231-0.533c1.25-3.406,4.927-9.551,5.312-9.75c0.41-0.211,12.888-0.982,18.918-0.784V29  c0.005,0,0.011,0,0.016,0c0.011,0,0.022,0,0.033-0.001c0.011,0,0.022,0,0.033,0.001c0.005,0,0.011,0,0.016,0v-0.002  c6.03-0.198,18.509,0.572,18.918,0.784c0.387,0.199,4.062,6.344,5.312,9.75L50,40.064z M80.299,65.521l-8.756,0.69  c0,0-0.711,0.035-0.867-0.418s-1.378-4.147-0.42-4.126c0.5,0.011,5.904-0.207,7.959-0.021c0.683,0.062,1.757,0.328,2.125,1.733  C80.484,63.929,80.299,65.521,80.299,65.521z M78.155,52.82c-0.562-0.03-7.312,0.114-9.081,0.114c-0.541,0-0.672-0.435-0.531-0.764  c0.474-1.104,0.849-2.619,2-3.77c1.024-1.024,6.802-1.701,8.484-1.854c1.031-0.094,3.916,0.556,4.219,2.656  C83.58,51.516,79.822,52.909,78.155,52.82z M51.713,46.723c0,0.515-0.789,0.932-1.761,0.932c-0.973,0-1.761-0.417-1.761-0.932  c0-0.514,0.788-0.932,1.761-0.932C50.924,45.792,51.713,46.209,51.713,46.723z"></path></g><g id="SvgjsG1009" featurekey="pYXC9J-0" transform="matrix(0.6744305917981486,0,0,0.6744305917981486,121.77253652874725,160.7087786348426)" fill="#eae7e7"><path d="M10.96 5.84 l0 1.8 l-7.22 0 l0 4.22 l6.72 0 l0 1.8 l-6.72 0 l0 4.54 l7.58 0 l0 1.8 l-9.5 0 l0 -14.16 l9.14 0 z M22.148 10.28 c1.4 0 2.5434 0.45998 3.43 1.38 s1.3433 2.12 1.37 3.6 c0 1.48 -0.45334 2.6766 -1.36 3.59 s-2.06 1.3767 -3.46 1.39 c-0.69334 0 -1.34 -0.14666 -1.94 -0.44 s-1.0533 -0.68 -1.36 -1.16 l-0.04 0 l0 7 l-1.8 0 l0 -15.12 l1.8 0 l0 1.36 l0.04 0 c0.36 -0.50666 0.83334 -0.9 1.42 -1.18 s1.22 -0.42 1.9 -0.42 z M18.788 15.26 c0 0.98666 0.28998 1.7833 0.86998 2.39 s1.33 0.91 2.25 0.91 c0.96 0 1.7167 -0.30334 2.27 -0.91 s0.83668 -1.4033 0.85002 -2.39 c0 -0.98666 -0.28334 -1.78 -0.85 -2.38 s-1.33 -0.90666 -2.29 -0.92 c-0.94666 0 -1.7 0.31 -2.26 0.93 s-0.84 1.41 -0.84 2.37 z M33.656 5.800000000000001 c0.36 0 0.67002 0.13002 0.93002 0.39002 s0.39 0.57 0.39 0.93 c0 0.37334 -0.13334 0.68668 -0.4 0.94002 s-0.57332 0.38 -0.91998 0.38 c-0.37334 0 -0.68668 -0.12666 -0.94002 -0.38 s-0.38 -0.56668 -0.38 -0.94002 s0.13334 -0.68668 0.4 -0.94002 s0.57332 -0.38 0.91998 -0.38 z M34.556 10.52 l0 9.48 l-1.8 0 l0 -9.48 l1.8 0 z M45.324 10.3 c1.5067 0 2.72 0.5 3.64 1.5 l-1.36 1.24 c-0.65334 -0.70666 -1.44 -1.06 -2.36 -1.06 c-0.88 0 -1.5933 0.31334 -2.14 0.94 s-0.82 1.4333 -0.82 2.42 c0 0.93334 0.28666 1.7 0.86 2.3 s1.3067 0.90666 2.2 0.92 c0.94666 0 1.7133 -0.35334 2.3 -1.06 l1.28 1.28 c-0.85334 0.97334 -2.0534 1.46 -3.6 1.46 c-1.4533 0 -2.6366 -0.45334 -3.55 -1.36 s-1.3833 -2.1 -1.41 -3.58 c0.01334 -1.5067 0.48334 -2.7134 1.41 -3.62 s2.11 -1.3667 3.55 -1.38 z M58.372 10.3 c1.5067 0 2.72 0.5 3.64 1.5 l-1.36 1.24 c-0.65334 -0.70666 -1.44 -1.06 -2.36 -1.06 c-0.88 0 -1.5933 0.31334 -2.14 0.94 s-0.82 1.4333 -0.82 2.42 c0 0.93334 0.28666 1.7 0.86 2.3 s1.3067 0.90666 2.2 0.92 c0.94666 0 1.7133 -0.35334 2.3 -1.06 l1.28 1.28 c-0.85334 0.97334 -2.0534 1.46 -3.6 1.46 c-1.4533 0 -2.6366 -0.45334 -3.55 -1.36 s-1.3833 -2.1 -1.41 -3.58 c0.01334 -1.5067 0.48334 -2.7134 1.41 -3.62 s2.11 -1.3667 3.55 -1.38 z M70.72 10.28 c1.2 0 2.15 0.27328 2.85 0.81994 s1.07 1.3067 1.11 2.28 l0 5.08 c0 0.48 0.02666 0.99334 0.08 1.54 l-1.6 0 c-0.04 -0.42666 -0.06 -0.90666 -0.06 -1.44 l-0.04 0 c-0.41334 0.61334 -0.89 1.0467 -1.43 1.3 s-1.17 0.38 -1.89 0.38 c-0.97334 0 -1.7633 -0.26 -2.37 -0.78 s-0.91 -1.2067 -0.91 -2.06 c0 -1.08 0.45334 -1.8967 1.36 -2.45 s2.1866 -0.83 3.84 -0.83 l1.34 0 l0 -0.34 c0 -0.64 -0.21 -1.1433 -0.63 -1.51 s-0.97 -0.55 -1.65 -0.55 c-0.50666 0 -0.95 0.07666 -1.33 0.23 s-0.83 0.43668 -1.35 0.85002 l-1.08 -1.12 c1.0267 -0.90666 2.28 -1.3733 3.76 -1.4 z M68.26 17.259999999999998 c0 1.0267 0.68002 1.54 2.04 1.54 c0.81334 0 1.4633 -0.24334 1.95 -0.73 s0.73666 -1.19 0.75 -2.11 l0 -0.52 l-1.02 0 c-1.1733 0 -2.0866 0.15 -2.74 0.45 s-0.98 0.75666 -0.98 1.37 z M85.388 10.28 c0.33334 0 0.6 0.04 0.8 0.12 l-0.08 1.94 c-0.34666 -0.09334 -0.64666 -0.14 -0.9 -0.14 c-1.7733 0 -2.6734 0.98666 -2.7 2.96 l0 4.84 l-1.8 0 l0 -9.48 l1.8 0 l0 1.46 l0.04 0 c0.24 -0.50666 0.62666 -0.91666 1.16 -1.23 s1.0933 -0.47 1.68 -0.47 z M96.19600000000001 10.28 c0.33334 0 0.6 0.04 0.8 0.12 l-0.08 1.94 c-0.34666 -0.09334 -0.64666 -0.14 -0.9 -0.14 c-1.7733 0 -2.6734 0.98666 -2.7 2.96 l0 4.84 l-1.8 0 l0 -9.48 l1.8 0 l0 1.46 l0.04 0 c0.24 -0.50666 0.62666 -0.91666 1.16 -1.23 s1.0933 -0.47 1.68 -0.47 z M106.304 10.28 c1.4533 0 2.5834 0.45664 3.39 1.37 s1.2167 2.17 1.23 3.77 l0 0.5 l-7.6 0 c0 0.77334 0.31 1.4233 0.93 1.95 s1.3767 0.79666 2.27 0.81 c0.98666 0 1.8533 -0.47334 2.6 -1.42 l1.36 1.04 c-1.0133 1.2933 -2.4134 1.94 -4.2 1.94 c-1.4533 0 -2.6234 -0.46334 -3.51 -1.39 s-1.3433 -2.1234 -1.37 -3.59 c0 -1.4133 0.45666 -2.59 1.37 -3.53 s2.09 -1.4233 3.53 -1.45 z M109.004 14.48 c-0.02666 -0.89334 -0.28 -1.5767 -0.76 -2.05 s-1.14 -0.71 -1.98 -0.71 c-0.56 0 -1.0633 0.13666 -1.51 0.41 s-0.79666 0.62668 -1.05 1.06 s-0.38 0.86334 -0.38 1.29 l5.68 0 z M121.452 10.28 c1.0667 0 1.9033 0.32 2.51 0.96 s0.91666 1.5 0.93 2.58 l0 6.18 l-1.8 0 l0 -5.66 c0 -0.73334 -0.19 -1.3133 -0.57 -1.74 s-0.91 -0.64 -1.59 -0.64 c-0.84 0 -1.49 0.28 -1.95 0.84 s-0.69 1.3067 -0.69 2.24 l0 4.96 l-1.8 0 l0 -9.48 l1.8 0 l0 1.46 l0.04 0 c0.25334 -0.53334 0.66334 -0.95 1.23 -1.25 s1.1967 -0.45 1.89 -0.45 z M133.52 7.859999999999999 l-0.000019531 2.66 l2.58 0 l0 1.56 l-2.58 0 l0 4.56 c0 0.61334 0.08666 1.0867 0.26 1.42 s0.54 0.5 1.1 0.5 c0.53334 0 0.96 -0.09334 1.28 -0.28 l0 1.64 c-0.34666 0.18666 -0.89332 0.29332 -1.64 0.31998 c-0.72 0 -1.2767 -0.11 -1.67 -0.33 s-0.68 -0.52666 -0.86 -0.92 s-0.27 -1.01 -0.27 -1.85 l0 -5.06 l-2.08 0 l0 -1.56 l2.08 0 l0 -2.66 l1.8 0 z M145.628 10.28 c1.2 0 2.15 0.27328 2.85 0.81994 s1.07 1.3067 1.11 2.28 l0 5.08 c0 0.48 0.02666 0.99334 0.08 1.54 l-1.6 0 c-0.04 -0.42666 -0.06 -0.90666 -0.06 -1.44 l-0.04 0 c-0.41334 0.61334 -0.89 1.0467 -1.43 1.3 s-1.17 0.38 -1.89 0.38 c-0.97334 0 -1.7633 -0.26 -2.37 -0.78 s-0.91 -1.2067 -0.91 -2.06 c0 -1.08 0.45334 -1.8967 1.36 -2.45 s2.1866 -0.83 3.84 -0.83 l1.34 0 l0 -0.34 c0 -0.64 -0.21 -1.1433 -0.63 -1.51 s-0.97 -0.55 -1.65 -0.55 c-0.50666 0 -0.95 0.07666 -1.33 0.23 s-0.83 0.43668 -1.35 0.85002 l-1.08 -1.12 c1.0267 -0.90666 2.28 -1.3733 3.76 -1.4 z M143.16799999999998 17.259999999999998 c0 1.0267 0.68002 1.54 2.04 1.54 c0.81334 0 1.4633 -0.24334 1.95 -0.73 s0.73666 -1.19 0.75 -2.11 l0 -0.52 l-1.02 0 c-1.1733 0 -2.0866 0.15 -2.74 0.45 s-0.98 0.75666 -0.98 1.37 z M157.556 4.880000000000001 l0 15.12 l-1.8 0 l0 -15.12 l1.8 0 z M167.024 10.28 c0.72 0 1.3633 0.13338 1.93 0.40004 s1.0033 0.65332 1.31 1.16 l-1.4 1.06 c-0.53334 -0.62666 -1.18 -0.94 -1.94 -0.94 c-0.45334 0 -0.83 0.1 -1.13 0.3 s-0.45 0.45334 -0.45 0.76 c0 0.66666 0.62 1.12 1.86 1.36 c1.2133 0.22666 2.07 0.56 2.57 1 s0.75 1.0667 0.75 1.88 c0 0.92 -0.35 1.6433 -1.05 2.17 s-1.6367 0.79666 -2.81 0.81 c-0.88 0 -1.6033 -0.13666 -2.17 -0.41 s-1.0567 -0.69668 -1.47 -1.27 l1.36 -1.12 c0.72 0.74666 1.4867 1.12 2.3 1.12 c0.53334 0 0.98668 -0.10666 1.36 -0.32 s0.56 -0.50668 0.56 -0.88002 c0 -0.65334 -0.6 -1.1067 -1.8 -1.36 c-1.3333 -0.26666 -2.23 -0.62332 -2.69 -1.07 s-0.69 -1.0233 -0.69 -1.73 c0 -0.88 0.34 -1.5833 1.02 -2.11 s1.54 -0.79666 2.58 -0.81 z M177.912 4.880000000000001 l0.000019531 7 l0.04 0 c0.32 -0.49334 0.78334 -0.88334 1.39 -1.17 s1.2433 -0.43 1.91 -0.43 c1.4267 0 2.5866 0.47 3.48 1.41 s1.34 2.13 1.34 3.57 c0 1.4267 -0.43666 2.6066 -1.31 3.54 s-2.0366 1.4133 -3.49 1.44 c-0.65334 0 -1.2833 -0.14 -1.89 -0.42 s-1.0833 -0.67334 -1.43 -1.18 l-0.04 0 l0 1.36 l-1.8 0 l0 -15.12 l1.8 0 z M177.912 15.26 c0 0.98666 0.28338 1.7767 0.85004 2.37 s1.3233 0.90334 2.27 0.93 c0.94666 0 1.7033 -0.30666 2.27 -0.92 s0.85 -1.4067 0.85 -2.38 s-0.28 -1.7633 -0.84 -2.37 s-1.3267 -0.91666 -2.3 -0.93 c-0.94666 0 -1.7 0.31 -2.26 0.93 s-0.84 1.41 -0.84 2.37 z M196.32 10.28 c1.4 0 2.5866 0.48338 3.56 1.45 s1.4667 2.1434 1.48 3.53 c0 1.4 -0.48666 2.5734 -1.46 3.52 s-2.1666 1.4333 -3.58 1.46 c-1.3867 0 -2.5666 -0.48 -3.54 -1.44 s-1.4733 -2.14 -1.5 -3.54 c0 -1.3733 0.48334 -2.54 1.45 -3.5 s2.1634 -1.4533 3.59 -1.48 z M193.2 15.26 c0 0.97334 0.28664 1.7633 0.85998 2.37 s1.3267 0.91666 2.26 0.93 c0.94666 0 1.7 -0.30334 2.26 -0.91 s0.84666 -1.4033 0.86 -2.39 c0 -0.97334 -0.28 -1.7633 -0.84 -2.37 s-1.3267 -0.91666 -2.3 -0.93 c-0.94666 0 -1.7 0.31334 -2.26 0.94 s-0.84 1.4133 -0.84 2.36 z M210.228 10.28 c0.72 0 1.3633 0.13338 1.93 0.40004 s1.0033 0.65332 1.31 1.16 l-1.4 1.06 c-0.53334 -0.62666 -1.18 -0.94 -1.94 -0.94 c-0.45334 0 -0.83 0.1 -1.13 0.3 s-0.45 0.45334 -0.45 0.76 c0 0.66666 0.62 1.12 1.86 1.36 c1.2133 0.22666 2.07 0.56 2.57 1 s0.75 1.0667 0.75 1.88 c0 0.92 -0.35 1.6433 -1.05 2.17 s-1.6367 0.79666 -2.81 0.81 c-0.88 0 -1.6033 -0.13666 -2.17 -0.41 s-1.0567 -0.69668 -1.47 -1.27 l1.36 -1.12 c0.72 0.74666 1.4867 1.12 2.3 1.12 c0.53334 0 0.98668 -0.10666 1.36 -0.32 s0.56 -0.50668 0.56 -0.88002 c0 -0.65334 -0.6 -1.1067 -1.8 -1.36 c-1.3333 -0.26666 -2.23 -0.62332 -2.69 -1.07 s-0.69 -1.0233 -0.69 -1.73 c0 -0.88 0.34 -1.5833 1.02 -2.11 s1.54 -0.79666 2.58 -0.81 z M222.51600000000002 10.28 c0.72 0 1.3633 0.13338 1.93 0.40004 s1.0033 0.65332 1.31 1.16 l-1.4 1.06 c-0.53334 -0.62666 -1.18 -0.94 -1.94 -0.94 c-0.45334 0 -0.83 0.1 -1.13 0.3 s-0.45 0.45334 -0.45 0.76 c0 0.66666 0.62 1.12 1.86 1.36 c1.2133 0.22666 2.07 0.56 2.57 1 s0.75 1.0667 0.75 1.88 c0 0.92 -0.35 1.6433 -1.05 2.17 s-1.6367 0.79666 -2.81 0.81 c-0.88 0 -1.6033 -0.13666 -2.17 -0.41 s-1.0567 -0.69668 -1.47 -1.27 l1.36 -1.12 c0.72 0.74666 1.4867 1.12 2.3 1.12 c0.53334 0 0.98668 -0.10666 1.36 -0.32 s0.56 -0.50668 0.56 -0.88002 c0 -0.65334 -0.6 -1.1067 -1.8 -1.36 c-1.3333 -0.26666 -2.23 -0.62332 -2.69 -1.07 s-0.69 -1.0233 -0.69 -1.73 c0 -0.88 0.34 -1.5833 1.02 -2.11 s1.54 -0.79666 2.58 -0.81 z M238.54400000000004 5.48 c1.92 0 3.5366 0.5833 4.85 1.75 s1.97 2.61 1.97 4.33 c0 0.92 -0.2 1.7933 -0.6 2.62 s-0.98666 1.5367 -1.76 2.13 s-1.5533 0.89 -2.34 0.89 c-0.34666 0 -0.64 -0.11 -0.88 -0.33 s-0.36666 -0.53666 -0.38 -0.95 l-0.08 0 c-0.8 0.85334 -1.6267 1.28 -2.48 1.28 c-0.78666 0 -1.44 -0.28666 -1.96 -0.86 s-0.78 -1.3333 -0.78 -2.28 c0 -1.4267 0.43666 -2.67 1.31 -3.73 s1.93 -1.59 3.17 -1.59 c1.08 0 1.7933 0.50666 2.14 1.52 l0.04 0 l0.32 -1.14 l1.46 0 l-1.68 5.52 l-0.1 0.52 c0 0.32 0.19334 0.48 0.58 0.48 c0.6 0 1.16 -0.4 1.68 -1.2 s0.78 -1.7067 0.78 -2.72 c0 -1.48 -0.49334 -2.67 -1.48 -3.57 s-2.24 -1.35 -3.76 -1.35 c-1.6933 0 -3.0966 0.59 -4.21 1.77 s-1.67 2.6434 -1.67 4.39 c0 1.7333 0.56666 3.18 1.7 4.34 s2.56 1.74 4.28 1.74 c0.97334 0 1.8733 -0.17666 2.7 -0.53 s1.48 -0.85 1.96 -1.49 l1.58 0 c-0.57334 1 -1.43 1.8067 -2.57 2.42 s-2.3766 0.92 -3.71 0.92 c-1.3467 0 -2.6034 -0.33334 -3.77 -1 s-2.08 -1.57 -2.74 -2.71 s-0.99 -2.3966 -0.99 -3.77 c0 -1.3067 0.33 -2.5334 0.99 -3.68 s1.5633 -2.0534 2.71 -2.72 s2.3866 -1 3.72 -1 z M235.78400000000002 14.04 c0 1.0667 0.47334 1.6 1.42 1.6 c0.73334 0 1.3733 -0.38 1.92 -1.14 s0.82 -1.5733 0.82 -2.44 c0 -0.50666 -0.11334 -0.92666 -0.34 -1.26 s-0.54666 -0.5 -0.96 -0.5 c-0.81334 0 -1.4933 0.35334 -2.04 1.06 s-0.82 1.6 -0.82 2.68 z M255.37200000000004 10.28 c0.68 0 1.3133 0.13998 1.9 0.41998 s1.0533 0.67334 1.4 1.18 l0.04 0 l0 -1.36 l1.8 0 l0 9.48 c-0.01334 1.4 -0.49334 2.5466 -1.44 3.44 s-2.1934 1.3467 -3.74 1.36 c-1.96 0 -3.5066 -0.56666 -4.64 -1.7 l1.22 -1.52 c0.94666 1.0267 2.08 1.54 3.4 1.54 c1.1333 0 1.9833 -0.29 2.55 -0.87 s0.85 -1.37 0.85 -2.37 l0 -1.44 l-0.06 0 c-0.32 0.56 -0.78334 0.98 -1.39 1.26 s-1.2367 0.42 -1.89 0.42 c-1.3867 0 -2.5334 -0.46334 -3.44 -1.39 s-1.3667 -2.07 -1.38 -3.43 c0.01334 -1.52 0.47 -2.7334 1.37 -3.64 s2.05 -1.3667 3.45 -1.38 z M252.47200000000004 15.26 c0 0.94666 0.27662 1.7067 0.82996 2.28 s1.3167 0.87334 2.29 0.9 c0.96 0 1.7167 -0.28666 2.27 -0.86 s0.83668 -1.3467 0.85002 -2.32 c0 -0.98666 -0.28334 -1.78 -0.85 -2.38 s-1.33 -0.90666 -2.29 -0.92 c-0.94666 0 -1.7 0.31334 -2.26 0.94 s-0.84 1.4133 -0.84 2.36 z M271.40000000000003 10.28 c1.3733 0 2.36 0.58666 2.96 1.76 c0.30666 -0.56 0.72666 -0.99334 1.26 -1.3 s1.1133 -0.46 1.74 -0.46 c2.3866 0 3.5866 1.3733 3.6 4.12 l0 5.6 l-1.8 0 l0 -5.38 c0 -0.93334 -0.16666 -1.61 -0.5 -2.03 s-0.84668 -0.63 -1.54 -0.63 c-0.81334 0 -1.42 0.24666 -1.82 0.74 s-0.6 1.1733 -0.6 2.04 l0 5.26 l-1.8 0 l0 -5.1 c0 -1.12 -0.16 -1.89 -0.48 -2.31 s-0.82666 -0.63 -1.52 -0.63 c-0.74666 0 -1.3433 0.28666 -1.79 0.86 s-0.67 1.3 -0.67 2.18 l0 5 l-1.8 0 l0 -9.48 l1.68 0 l0 1.48 l0.04 0 c0.2 -0.46666 0.59666 -0.87 1.19 -1.21 s1.21 -0.51 1.85 -0.51 z M290.88800000000003 10.28 c1.2 0 2.15 0.27328 2.85 0.81994 s1.07 1.3067 1.11 2.28 l0 5.08 c0 0.48 0.02666 0.99334 0.08 1.54 l-1.6 0 c-0.04 -0.42666 -0.06 -0.90666 -0.06 -1.44 l-0.04 0 c-0.41334 0.61334 -0.89 1.0467 -1.43 1.3 s-1.17 0.38 -1.89 0.38 c-0.97334 0 -1.7633 -0.26 -2.37 -0.78 s-0.91 -1.2067 -0.91 -2.06 c0 -1.08 0.45334 -1.8967 1.36 -2.45 s2.1866 -0.83 3.84 -0.83 l1.34 0 l0 -0.34 c0 -0.64 -0.21 -1.1433 -0.63 -1.51 s-0.97 -0.55 -1.65 -0.55 c-0.50666 0 -0.95 0.07666 -1.33 0.23 s-0.83 0.43668 -1.35 0.85002 l-1.08 -1.12 c1.0267 -0.90666 2.28 -1.3733 3.76 -1.4 z M288.428 17.259999999999998 c0 1.0267 0.68002 1.54 2.04 1.54 c0.81334 0 1.4633 -0.24334 1.95 -0.73 s0.73666 -1.19 0.75 -2.11 l0 -0.52 l-1.02 0 c-1.1733 0 -2.0866 0.15 -2.74 0.45 s-0.98 0.75666 -0.98 1.37 z M301.916 5.800000000000001 c0.36 0 0.67002 0.13002 0.93002 0.39002 s0.39 0.57 0.39 0.93 c0 0.37334 -0.13334 0.68668 -0.4 0.94002 s-0.57332 0.38 -0.91998 0.38 c-0.37334 0 -0.68668 -0.12666 -0.94002 -0.38 s-0.38 -0.56668 -0.38 -0.94002 s0.13334 -0.68668 0.4 -0.94002 s0.57332 -0.38 0.91998 -0.38 z M302.81600000000003 10.52 l0 9.48 l-1.8 0 l0 -9.48 l1.8 0 z M311.02400000000006 4.880000000000001 l0 15.12 l-1.8 0 l0 -15.12 l1.8 0 z"></path></g><g id="SvgjsG1010" featurekey="pYXC9J-1" transform="matrix(0.9115349302119784,0,0,0.9115349302119784,133.7994620719473,183.55170943624864)" fill="#eae7e7"><path d="M11.26 5.84 l0 1.8 l-4.56 0 l0 12.36 l-1.92 0 l0 -12.36 l-4.56 0 l0 -1.8 l11.04 0 z M18.368000000000002 10.28 c1.4533 0 2.5834 0.45664 3.39 1.37 s1.2167 2.17 1.23 3.77 l0 0.5 l-7.6 0 c0 0.77334 0.31 1.4233 0.93 1.95 s1.3767 0.79666 2.27 0.81 c0.98666 0 1.8533 -0.47334 2.6 -1.42 l1.36 1.04 c-1.0133 1.2933 -2.4134 1.94 -4.2 1.94 c-1.4533 0 -2.6234 -0.46334 -3.51 -1.39 s-1.3433 -2.1234 -1.37 -3.59 c0 -1.4133 0.45666 -2.59 1.37 -3.53 s2.09 -1.4233 3.53 -1.45 z M21.068 14.48 c-0.02666 -0.89334 -0.28 -1.5767 -0.76 -2.05 s-1.14 -0.71 -1.98 -0.71 c-0.56 0 -1.0633 0.13666 -1.51 0.41 s-0.79666 0.62668 -1.05 1.06 s-0.38 0.86334 -0.38 1.29 l5.68 0 z M30.496000000000006 4.880000000000001 l0 15.12 l-1.8 0 l0 -15.12 l1.8 0 z M38.184000000000005 10.4 c0.36 0 0.67 0.13002 0.93 0.39002 s0.39 0.57 0.39 0.93 c0 0.37334 -0.13334 0.68668 -0.4 0.94002 s-0.57332 0.38 -0.91998 0.38 c-0.36 0 -0.67 -0.12666 -0.93 -0.38 s-0.39 -0.56668 -0.39 -0.94002 s0.13334 -0.68668 0.4 -0.94002 s0.57332 -0.38 0.91998 -0.38 z M38.184000000000005 17.48 c0.36 0 0.67 0.13002 0.93 0.39002 s0.39 0.57 0.39 0.93 c0 0.37334 -0.13334 0.68668 -0.4 0.94002 s-0.57332 0.38 -0.91998 0.38 c-0.36 0 -0.67 -0.12666 -0.93 -0.38 s-0.39 -0.56668 -0.39 -0.94002 s0.13334 -0.68668 0.4 -0.94002 s0.57332 -0.38 0.91998 -0.38 z M36.224000000000004 10.52 z M49.932 5.6 c1.2133 0 2.2034 0.33334 2.97 1 s1.1567 1.5133 1.17 2.54 c0 0.81334 -0.19666 1.51 -0.59 2.09 s-0.93668 0.97666 -1.63 1.19 l0 0.06 c0.84 0.24 1.4967 0.66666 1.97 1.28 s0.71668 1.34 0.73002 2.18 c0 1.2933 -0.43334 2.33 -1.3 3.11 s-1.9733 1.1767 -3.32 1.19 c-1.3333 0 -2.4334 -0.39 -3.3 -1.17 s-1.3067 -1.8233 -1.32 -3.13 c0 -0.82666 0.23666 -1.55 0.71 -2.17 s1.1367 -1.05 1.99 -1.29 l0 -0.06 c-0.69334 -0.2 -1.2367 -0.6 -1.63 -1.2 s-0.59 -1.2933 -0.59 -2.08 c0 -1.0267 0.40334 -1.8733 1.21 -2.54 s1.7833 -1 2.93 -1 z M47.712 9.4 c0 0.61334 0.21002 1.14 0.63002 1.58 s0.95 0.66 1.59 0.66 c0.68 0 1.22 -0.21334 1.62 -0.64 s0.6 -0.96 0.6 -1.6 c0 -0.68 -0.20666 -1.2233 -0.62 -1.63 s-0.95334 -0.61 -1.62 -0.61 c-0.62666 0 -1.1467 0.21334 -1.56 0.64 s-0.62668 0.96 -0.64002 1.6 z M47.232 15.940000000000001 c0 0.76 0.25336 1.3867 0.76002 1.88 s1.1533 0.74 1.94 0.74 s1.43 -0.24334 1.93 -0.73 s0.75666 -1.1167 0.77 -1.89 c0 -0.84 -0.25666 -1.4867 -0.77 -1.94 s-1.1633 -0.68 -1.95 -0.68 c-0.77334 0 -1.4133 0.25334 -1.92 0.76 s-0.76 1.1267 -0.76 1.86 z M68.64 5.84 l0 1.64 l-5.64 12.52 l-2.16 0 l5.74 -12.48 l-6.84 0 l0 -1.68 l8.9 0 z M81.388 5.84 l-3.56 5.48 l0.08 0 c0.44 -0.21334 0.96 -0.32 1.56 -0.32 c0.78666 0 1.5167 0.18 2.19 0.54 s1.2033 0.87334 1.59 1.54 s0.58666 1.4667 0.6 2.4 c0 1.4667 -0.45 2.6234 -1.35 3.47 s-2.07 1.2767 -3.51 1.29 c-1.3733 0 -2.52 -0.42334 -3.44 -1.27 s-1.3933 -1.9433 -1.42 -3.29 c0 -0.68 0.09 -1.31 0.27 -1.89 s0.55666 -1.3367 1.13 -2.27 l3.6 -5.68 l2.26 0 z M76.04800000000002 15.620000000000001 c0 0.88 0.27002 1.5866 0.81002 2.12 s1.25 0.80668 2.13 0.82002 c0.86666 0 1.5733 -0.27334 2.12 -0.82 s0.82 -1.2533 0.82 -2.12 c0 -0.85334 -0.26334 -1.5533 -0.79 -2.1 s-1.25 -0.82666 -2.17 -0.84 c-0.85334 0 -1.5533 0.27 -2.1 0.81 s-0.82 1.25 -0.82 2.13 z M93.57600000000002 14.32 l0 1.68 l-4.92 0 l0 -1.68 l4.92 0 z M106.32400000000003 5.84 l0 9.36 l2 0 l0 1.68 l-2 0 l0 3.12 l-1.92 0 l0 -3.12 l-6.04 0 l0 -1.96 l5.64 -9.08 l2.32 0 z M104.36400000000003 8.12 l-4.32 7.08 l4.36 0 l0 -7.08 l-0.04 0 z M117.95200000000003 5.48 c1.32 0 2.3866 0.34664 3.2 1.04 s1.2333 1.6533 1.26 2.88 c0 0.76 -0.19334 1.48 -0.58 2.16 s-1 1.42 -1.84 2.22 l-4.7 4.54 l7.12 0 l0 1.68 l-9.28 0 l0 -2.04 l5.52 -5.48 c0.48 -0.46666 0.88666 -0.95332 1.22 -1.46 s0.5 -1.04 0.5 -1.6 c0 -0.66666 -0.23 -1.21 -0.69 -1.63 s-1.0433 -0.63 -1.75 -0.63 s-1.2833 0.19334 -1.73 0.58 s-0.73 0.92 -0.85 1.6 l-2.08 -0.18 c0.18666 -1.1867 0.69 -2.0966 1.51 -2.73 s1.8767 -0.95 3.17 -0.95 z M135.38000000000005 5.84 l0 9.36 l2 0 l0 1.68 l-2 0 l0 3.12 l-1.92 0 l0 -3.12 l-6.04 0 l0 -1.96 l5.64 -9.08 l2.32 0 z M133.42000000000004 8.12 l-4.32 7.08 l4.36 0 l0 -7.08 l-0.04 0 z M146.88800000000003 14.32 l0 1.68 l-4.92 0 l0 -1.68 l4.92 0 z M156.55600000000004 5.6 c1.2133 0 2.2034 0.33334 2.97 1 s1.1567 1.5133 1.17 2.54 c0 0.81334 -0.19666 1.51 -0.59 2.09 s-0.93668 0.97666 -1.63 1.19 l0 0.06 c0.84 0.24 1.4967 0.66666 1.97 1.28 s0.71668 1.34 0.73002 2.18 c0 1.2933 -0.43334 2.33 -1.3 3.11 s-1.9733 1.1767 -3.32 1.19 c-1.3333 0 -2.4334 -0.39 -3.3 -1.17 s-1.3067 -1.8233 -1.32 -3.13 c0 -0.82666 0.23666 -1.55 0.71 -2.17 s1.1367 -1.05 1.99 -1.29 l0 -0.06 c-0.69334 -0.2 -1.2367 -0.6 -1.63 -1.2 s-0.59 -1.2933 -0.59 -2.08 c0 -1.0267 0.40334 -1.8733 1.21 -2.54 s1.7833 -1 2.93 -1 z M154.33600000000004 9.4 c0 0.61334 0.21002 1.14 0.63002 1.58 s0.95 0.66 1.59 0.66 c0.68 0 1.22 -0.21334 1.62 -0.64 s0.6 -0.96 0.6 -1.6 c0 -0.68 -0.20666 -1.2233 -0.62 -1.63 s-0.95334 -0.61 -1.62 -0.61 c-0.62666 0 -1.1467 0.21334 -1.56 0.64 s-0.62668 0.96 -0.64002 1.6 z M153.85600000000005 15.940000000000001 c0 0.76 0.25336 1.3867 0.76002 1.88 s1.1533 0.74 1.94 0.74 s1.43 -0.24334 1.93 -0.73 s0.75666 -1.1167 0.77 -1.89 c0 -0.84 -0.25666 -1.4867 -0.77 -1.94 s-1.1633 -0.68 -1.95 -0.68 c-0.77334 0 -1.4133 0.25334 -1.92 0.76 s-0.76 1.1267 -0.76 1.86 z M171.08400000000003 5.6 c1.4267 0 2.59 0.43332 3.49 1.3 s1.3567 1.9533 1.37 3.26 c0 0.65334 -0.08666 1.2667 -0.26 1.84 s-0.55334 1.34 -1.14 2.3 l-3.6 5.7 l-2.26 0 l3.56 -5.48 l-0.08 0 c-0.44 0.21334 -0.96 0.32 -1.56 0.32 c-1.2533 -0.01334 -2.2934 -0.43 -3.12 -1.25 s-1.2467 -1.8967 -1.26 -3.23 c0 -1.4533 0.44 -2.6034 1.32 -3.45 s2.06 -1.2833 3.54 -1.31 z M168.14400000000003 10.22 c0 0.86666 0.27664 1.5733 0.82998 2.12 s1.2567 0.82 2.11 0.82 c0.88 0 1.59 -0.27 2.13 -0.81 s0.81 -1.25 0.81 -2.13 c0 -0.84 -0.26666 -1.54 -0.8 -2.1 s-1.2533 -0.84 -2.16 -0.84 c-0.88 0.01334 -1.5833 0.28334 -2.11 0.81 s-0.79666 1.2367 -0.81 2.13 z M187.372 5.84 l0 14.16 l-1.92 0 l0 -11.96 l-2.6 2.4 l-1.12 -1.34 l3.94 -3.26 l1.7 0 z M200.08 5.48 c1.3067 0 2.3534 0.33998 3.14 1.02 s1.1867 1.62 1.2 2.82 c0 0.76 -0.22334 1.43 -0.67 2.01 s-1.03 0.98334 -1.75 1.21 l0 0.04 c0.88 0.16 1.5633 0.56666 2.05 1.22 s0.73 1.4333 0.73 2.34 c0 1.24 -0.44 2.23 -1.32 2.97 s-2.0134 1.1167 -3.4 1.13 c-1.1733 0 -2.15 -0.26666 -2.93 -0.8 s-1.3233 -1.2933 -1.63 -2.28 l2.02 -0.62 c0.26666 0.76 0.59666 1.2867 0.99 1.58 s0.92334 0.44 1.59 0.44 c0.78666 0 1.4433 -0.24 1.97 -0.72 s0.79 -1.0933 0.79 -1.84 c0 -0.88 -0.30334 -1.54 -0.91 -1.98 s-1.63 -0.66 -3.07 -0.66 l0 -1.68 c1.1867 0 2.0866 -0.15334 2.7 -0.46 s0.92 -0.89332 0.92 -1.76 c0 -0.73334 -0.21666 -1.3 -0.65 -1.7 s-1.01 -0.6 -1.73 -0.6 c-0.52 0 -0.98666 0.15 -1.4 0.45 s-0.73334 0.69666 -0.96 1.19 l-1.96 -0.66 c0.34666 -0.84 0.89332 -1.4933 1.64 -1.96 s1.6267 -0.7 2.64 -0.7 z"></path></g><g id="SvgjsG1011" featurekey="nameLeftFeature-0" transform="matrix(2.0296856980789126,0,0,2.0296856980789126,55.42022949863822,113.1678624043577)" fill="url(#SvgjsLinearGradient1027)"><path d="M9.8644 8.78 l-6.1697 -0.00033103 l0 3.4068 l3.322 0 c0.18644 0 0.33898 0.15254 0.33898 0.33915 l0 1.6778 c0 0.20339 -0.13559 0.3222 -0.33898 0.3222 l-3.322 0 l0 3.1356 l6.1695 0 c0.18644 0 0.33881 0.15238 0.33881 0.33881 l0 1.6613 c0 0.18644 -0.15238 0.33881 -0.33881 0.33881 l-8.2542 0 c-0.18644 0 -0.33898 -0.15238 -0.33898 -0.33881 l0 -12.898 c0 -0.16949 0.13559 -0.32203 0.3222 -0.32203 l8.2712 0 c0.18644 0 0.33881 0.15254 0.33881 0.32203 l0 1.6949 c0 0.18644 -0.15238 0.32203 -0.33881 0.32203 z M17.89813559322034 6.441000000000001 c2.8136 0 4.661 2.5424 4.661 4.6271 c0 2.2373 -1.8475 4.661 -4.661 4.661 l-3 0 l0 3.9322 c0 0.20339 -0.13559 0.33881 -0.32203 0.33881 l-1.7966 0 c-0.16949 0 -0.30508 -0.13543 -0.30508 -0.33881 l0 -12.898 c0 -0.16949 0.13559 -0.32203 0.32203 -0.32203 l5.1017 0 z M17.64393559322034 13.39 c1.5932 0 2.4915 -1.1697 2.4915 -2.3222 c0 -1.1354 -0.89831 -2.288 -2.4915 -2.288 l-2.7458 0 l0 4.6102 l2.7458 0 z M26.42359661016949 6.441000000000001 l-1.6778 0 c-0.18644 0 -0.32203 0.15254 -0.32203 0.32203 l0 12.898 c0 0.18644 0.15254 0.33881 0.33898 0.33881 l1.678 0 c0.16933 0 0.32186 -0.16933 0.32186 -0.33881 l0 -12.898 c0 -0.16949 -0.16949 -0.32203 -0.33898 -0.32203 z M40.77964406779661 17.4578 c0.16949 0.13559 0.16933 0.30508 0.016784 0.45763 c-1.2542 1.3729 -3.0339 2.2032 -5.0678 2.2032 c-3.7288 0 -6.8475 -2.9998 -6.8475 -6.8642 c0 -3.8475 3.1186 -6.9322 6.8475 -6.9322 c2.0508 0 3.8475 0.84746 5.1186 2.2373 c0.15254 0.15254 0.13559 0.32203 -0.016949 0.45763 l-1.4068 1.1356 c-0.16966 0.13559 -0.32203 0.11864 -0.45763 -0.033898 c-0.72881 -0.76271 -1.8644 -1.4575 -3.2203 -1.4575 c-2.4915 0 -4.4405 2.1524 -4.4405 4.5931 c0 2.4746 1.949 4.5254 4.4405 4.5254 c1.339 0 2.4576 -0.66102 3.1695 -1.4068 c0.15254 -0.15254 0.30508 -0.16949 0.47458 -0.050847 z M59.0338813559322 17.4578 c0.16949 0.13559 0.16933 0.30508 0.016784 0.45763 c-1.2542 1.3729 -3.0339 2.2032 -5.0678 2.2032 c-3.7288 0 -6.8475 -2.9998 -6.8475 -6.8642 c0 -3.8475 3.1186 -6.9322 6.8475 -6.9322 c2.0508 0 3.8475 0.84746 5.1186 2.2373 c0.15254 0.15254 0.13559 0.32203 -0.016949 0.45763 l-1.4068 1.1356 c-0.16966 0.13559 -0.32203 0.11864 -0.45763 -0.033898 c-0.72881 -0.76271 -1.8644 -1.4575 -3.2203 -1.4575 c-2.4915 0 -4.4405 2.1524 -4.4405 4.5931 c0 2.4746 1.949 4.5254 4.4405 4.5254 c1.339 0 2.4576 -0.66102 3.1695 -1.4068 c0.15254 -0.15254 0.30508 -0.16949 0.47458 -0.050847 z M73.9825593220339 19.62712 c0.10169 0.20339 0.034229 0.37271 -0.20305 0.37271 l-1.9831 0 c-0.16949 0 -0.27119 -0.08458 -0.33898 -0.22017 l-0.91525 -1.9322 l-6.5256 0 l-0.91525 1.9322 c-0.067797 0.13559 -0.18644 0.22017 -0.33898 0.22017 l-2 0 c-0.20339 0 -0.32203 -0.16933 -0.22034 -0.37271 l6.3898 -13.102 c0.067797 -0.11881 0.15238 -0.16966 0.23712 -0.16966 l0.20339 0 c0.10169 0 0.16949 0.050847 0.23729 0.16966 z M65.0510593220339 15.6441 l4.4576 0 l-2.2203 -4.7288 z M86.18586440677966 19.61017 c0.13559 0.20339 0.034064 0.38983 -0.23712 0.38983 l-1.5763 0 c-0.47458 0 -0.88136 -0.44068 -1.0339 -0.69492 l-2.339 -3.5763 l-2.8475 0 l0 3.9322 c0 0.20339 -0.13559 0.33881 -0.32203 0.33881 l-1.7966 0 c-0.16949 0 -0.30508 -0.13543 -0.30508 -0.33881 l0 -12.898 c0 -0.16949 0.13559 -0.32203 0.32203 -0.32203 l5.4068 0 c2.7797 0 4.4915 2.5763 4.4915 4.6441 c0 1.6442 -0.98305 3.4576 -2.661 4.2373 z M78.15266440677965 8.78 l0.00033103 4.6102 l2.9659 0 c1.6102 0 2.3898 -1.1695 2.3898 -2.3559 c0 -1.1356 -0.79661 -2.2542 -2.3902 -2.2542 l-2.9659 0 z M103.20281355932204 19.61017 c0.13559 0.20339 0.034064 0.38983 -0.23712 0.38983 l-1.5763 0 c-0.47458 0 -0.88136 -0.44068 -1.0339 -0.69492 l-2.339 -3.5763 l-2.8475 0 l0 3.9322 c0 0.20339 -0.13559 0.33881 -0.32203 0.33881 l-1.7966 0 c-0.16949 0 -0.30508 -0.13543 -0.30508 -0.33881 l0 -12.898 c0 -0.16949 0.13559 -0.32203 0.32203 -0.32203 l5.4068 0 c2.7797 0 4.4915 2.5763 4.4915 4.6441 c0 1.6442 -0.98305 3.4576 -2.661 4.2373 z M95.16961355932203 8.78 l0.00033103 4.6102 l2.9659 0 c1.6102 0 2.3898 -1.1695 2.3898 -2.3559 c0 -1.1356 -0.79661 -2.2542 -2.3902 -2.2542 l-2.9659 0 z M113.83050169491526 8.78 l-6.1697 -0.00033103 l0 3.4068 l3.322 0 c0.18644 0 0.33898 0.15254 0.33898 0.33915 l0 1.6778 c0 0.20339 -0.13559 0.3222 -0.33898 0.3222 l-3.322 0 l0 3.1356 l6.1695 0 c0.18644 0 0.33881 0.15238 0.33881 0.33881 l0 1.6613 c0 0.18644 -0.15238 0.33881 -0.33881 0.33881 l-8.2542 0 c-0.18644 0 -0.33898 -0.15238 -0.33898 -0.33881 l0 -12.898 c0 -0.16949 0.13559 -0.32203 0.3222 -0.32203 l8.2712 0 c0.18644 0 0.33881 0.15254 0.33881 0.32203 l0 1.6949 c0 0.18644 -0.15238 0.32203 -0.33881 0.32203 z M127.96623728813559 6.441000000000001 c0.16949 0 0.33915 0.15254 0.33915 0.32203 l0 12.915 c0 0.16949 -0.13559 0.32186 -0.32203 0.32186 l-0.55932 0 c-0.45763 0 -0.94915 -0.32203 -1.5593 -1 l-6.9322 -7.7456 l0 8.4068 c0 0.16949 -0.15254 0.32203 -0.33915 0.32203 l-1.7288 0.016784 c-0.18644 0 -0.33898 -0.15238 -0.33898 -0.33881 l0 -12.898 c0 -0.16949 0.15254 -0.32203 0.32203 -0.32203 l1 0 c0.18644 0 0.30508 0.067797 0.45763 0.25424 l7.5763 8.678 l0 -8.6102 c0 -0.16949 0.13559 -0.32203 0.32203 -0.32203 l1.7627 0 z M140.74527118644068 6.441000000000001 c0.16949 0 0.32203 0.13592 0.32203 0.32237 l0 1.6949 c0 0.16933 -0.15254 0.32186 -0.32203 0.32186 l-3.8305 0 l0 10.881 c0 0.20339 -0.13559 0.33881 -0.32203 0.33881 l-1.2542 0 c-0.54237 0 -0.84746 -0.37288 -0.84746 -0.86441 l0 -10.356 l-3.8136 0 c-0.16949 0 -0.33898 -0.13559 -0.33898 -0.32203 l0 -1.678 c0 -0.18644 0.15254 -0.33898 0.33898 -0.33898 l10.068 0 z"></path></g><g id="SvgjsG1012" featurekey="inlineSymbolFeature-0" transform="matrix(0.301178306602092,0,0,0.301178306602092,346.0964652238067,125.08893588103209)" fill="url(#SvgjsLinearGradient1030)"><circle xmlns="http://www.w3.org/2000/svg" fill="url(#SvgjsLinearGradient1030)" cx="49.487" cy="49.513" r="7.407"></circle><polygon xmlns="http://www.w3.org/2000/svg" fill="url(#SvgjsLinearGradient1030)" points="53.213,20.426 52.704,20.455 53.634,36.958 62.717,26.489 58.144,39.572 70.541,33.376   61.307,43.714 75.133,42.732 62.646,48.749 75.794,53.135 61.957,53.916 72.426,62.999 59.342,58.423 65.539,70.821 55.201,61.589   56.182,75.415 50.165,62.927 45.78,76.077 44.999,62.237 35.916,72.707 40.491,59.624 28.092,65.82 37.326,55.481 23.5,56.463   35.987,50.447 22.838,46.061 36.677,45.281 26.207,36.197 39.292,40.772 33.095,28.374 43.432,37.608 42.452,23.781 48.469,36.269   53.699,20.588 53.213,20.426 52.704,20.455 53.213,20.426 52.729,20.264 48.297,33.556 41.056,18.529 42.234,35.168 29.794,24.057   37.252,38.977 21.506,33.471 34.105,44.402 17.452,45.341 33.275,50.619 18.249,57.859 34.887,56.68 23.774,69.121 38.696,61.664   33.19,77.408 44.121,64.81 45.06,81.464 50.338,65.64 57.578,80.667 56.398,64.029 68.838,75.142 61.382,60.221 77.129,65.726   64.526,54.793 81.183,53.855 65.358,48.577 80.387,41.337 63.746,42.516 74.859,30.076 59.938,37.533 65.442,21.788 54.514,34.387   53.573,17.733 52.729,20.264 "></polygon><path xmlns="http://www.w3.org/2000/svg" fill="url(#SvgjsLinearGradient1030)" d="M81.671,49.257c0-8.959-3.63-17.065-9.5-22.937c-5.874-5.871-13.979-9.5-22.939-9.501  c-8.959,0.001-17.066,3.63-22.938,9.501c-5.871,5.872-9.5,13.978-9.5,22.937c0,8.96,3.63,17.065,9.5,22.939  c5.872,5.87,13.979,9.5,22.938,9.5c8.96,0,17.065-3.63,22.939-9.5C78.041,66.322,81.671,58.217,81.671,49.257z M75.851,60.645  c-2.165,5.123-5.805,9.51-10.375,12.596c-2.284,1.544-4.796,2.761-7.479,3.596c-2.681,0.833-5.527,1.283-8.509,1.283  c-3.975,0-7.715-0.798-11.132-2.243c-5.123-2.165-9.509-5.805-12.595-10.375c-1.543-2.284-2.763-4.796-3.597-7.479  c-0.833-2.682-1.284-5.527-1.284-8.51c0.001-3.975,0.8-7.715,2.245-11.132c2.165-5.123,5.804-9.509,10.375-12.595  c2.284-1.544,4.798-2.763,7.478-3.597c2.681-0.832,5.529-1.283,8.51-1.283c3.976,0.001,7.714,0.8,11.133,2.244  c5.122,2.165,9.509,5.803,12.595,10.375c1.544,2.284,2.761,4.798,3.596,7.478c0.833,2.682,1.283,5.529,1.284,8.511  C78.094,53.488,77.295,57.228,75.851,60.645z"></path><path xmlns="http://www.w3.org/2000/svg" fill="url(#SvgjsLinearGradient1030)" d="M92.317,31.415C88.783,23.062,82.9,15.981,75.485,10.97c-3.708-2.504-7.802-4.493-12.179-5.854  c-4.372-1.361-9.024-2.092-13.819-2.091C43.093,3.024,36.956,4.326,31.39,6.682c-8.354,3.536-15.435,9.418-20.445,16.833  c-2.505,3.708-4.493,7.802-5.854,12.176C3.73,40.065,3,44.718,3,49.513c-0.001,6.394,1.3,12.531,3.657,18.099  c3.536,8.354,9.418,15.434,16.833,20.444c3.708,2.504,7.802,4.492,12.177,5.854c4.374,1.36,9.026,2.092,13.821,2.091  c6.394,0.001,12.53-1.302,18.099-3.657c8.354-3.534,15.434-9.418,20.444-16.832c2.505-3.708,4.492-7.803,5.854-12.179  c1.361-4.372,2.091-9.023,2.091-13.819C95.977,43.119,94.673,36.982,92.317,31.415z M49.232,83.996  c-19.185,0-34.738-15.554-34.738-34.739c0-19.184,15.553-34.738,34.738-34.738c19.186,0,34.739,15.554,34.739,34.738  C83.971,68.442,68.418,83.996,49.232,83.996z"></path></g><g id="SvgjsG1013" featurekey="nameRightFeature-0" transform="matrix(2.065145230161748,0,0,2.065145230161748,377.72501572215515,112.69951826638828)" fill="#f6fa39"><path d="M9.2542 18.712 c0.13559 0 0.20339 0.084912 0.20339 0.23729 l0 0.83051 c0 0.15254 -0.067797 0.22017 -0.20339 0.22017 l-7.9492 0 c-0.15254 0 -0.20339 -0.10153 -0.20339 -0.22017 l0 -13.119 c0 -0.15254 0.067797 -0.22034 0.22034 -0.22034 l0.89831 0 c0.13559 0 0.22034 0.067797 0.22034 0.22034 l0 12.051 l6.8136 0 z"></path></g></svg>